<svg width="56" height="56" viewBox="0 0 56 56" fill="none" xmlns="http://www.w3.org/2000/svg">
<path d="M28 35.4286L26.9394 36.4892L28 37.5499L29.0607 36.4892L28 35.4286ZM29.5 2C29.5 1.17158 28.8284 0.500005 28 0.500005C27.1716 0.500005 26.5 1.17158 26.5 2L29.5 2ZM8.36793 17.9178L26.9394 36.4892L29.0607 34.3679L10.4892 15.7965L8.36793 17.9178ZM29.0607 36.4892L47.6321 17.9178L45.5108 15.7965L26.9394 34.3679L29.0607 36.4892ZM29.5 35.4286L29.5 2L26.5 2L26.5 35.4286L29.5 35.4286Z" fill="#222222"/>
<path d="M2 42.8571L2 46.5714C2 50.6741 5.32588 54 9.42857 54L46.5714 54C50.6741 54 54 50.6741 54 46.5714V42.8572" stroke="#222222" stroke-width="3"/>
</svg>
