<svg width="56" height="56" viewBox="0 0 56 56" fill="none" xmlns="http://www.w3.org/2000/svg">
<path d="M28.0001 35.4286L26.9395 36.4892L28.0001 37.5499L29.0608 36.4892L28.0001 35.4286ZM29.5001 1.99999C29.5001 1.17156 28.8286 0.499989 28.0001 0.499989C27.1717 0.499989 26.5001 1.17156 26.5001 1.99999L29.5001 1.99999ZM8.36805 17.9178L26.9395 36.4892L29.0608 34.3679L10.4894 15.7965L8.36805 17.9178ZM29.0608 36.4892L47.6322 17.9178L45.5109 15.7965L26.9395 34.3679L29.0608 36.4892ZM29.5001 35.4286L29.5001 1.99999L26.5001 1.99999L26.5001 35.4286L29.5001 35.4286Z" fill="#222222"/>
<path d="M2 42.8571L2 46.5714C2 50.6741 5.32588 54 9.42857 54L46.5714 54C50.6741 54 54 50.6741 54 46.5714V42.8572" stroke="#222222" stroke-width="3"/>
</svg>
