<svg width="20" height="21" viewBox="0 0 20 21" fill="none" xmlns="http://www.w3.org/2000/svg">
<path fill-rule="evenodd" clip-rule="evenodd" d="M13.2877 8.1675C13.2877 11.0296 10.9765 13.335 8.14384 13.335C5.31117 13.335 3 11.0296 3 8.1675C3 5.30536 5.31117 3 8.14384 3C10.9765 3 13.2877 5.30536 13.2877 8.1675ZM12.5096 15.0634C11.2478 15.8686 9.75015 16.335 8.14384 16.335C3.64612 16.335 0 12.6783 0 8.1675C0 3.65671 3.64612 0 8.14384 0C12.6416 0 16.2877 3.65671 16.2877 8.1675C16.2877 9.98132 15.6981 11.6571 14.7007 13.0125L19.9198 18.2678L17.8058 20.3965L12.5096 15.0634Z" fill="black"/>
</svg>
